<svg width="21" height="21" viewBox="0 0 21 21" fill="none" xmlns="http://www.w3.org/2000/svg">
<path d="M17.4151 0.615076C18.2352 -0.205025 19.5648 -0.205025 20.3849 0.615076C21.1305 1.36062 21.1982 2.52728 20.5883 3.34939L20.3849 3.58492L3.58492 20.3849C2.76482 21.205 1.43518 21.205 0.615076 20.3849C-0.130471 19.6394 -0.198248 18.4727 0.411745 17.6506L0.615076 17.4151L17.4151 0.615076Z" fill="#E53720"/>
<path d="M0.615076 0.615076C1.36062 -0.130471 2.52728 -0.198248 3.34939 0.411745L3.58492 0.615076L20.3849 17.4151C21.205 18.2352 21.205 19.5648 20.3849 20.3849C19.6394 21.1305 18.4727 21.1982 17.6506 20.5883L17.4151 20.3849L0.615076 3.58492C-0.205025 2.76482 -0.205025 1.43518 0.615076 0.615076Z" fill="#E53720"/>
</svg>
