<svg width="44" height="44" viewBox="0 0 44 44" fill="none" xmlns="http://www.w3.org/2000/svg">
<rect width="44" height="44" rx="22" fill="#85586F"/>
<path d="M15.3334 21.7714C15.3334 21.455 15.5685 21.1935 15.8736 21.1521L15.9584 21.1464H28.4584C28.8036 21.1464 29.0834 21.4262 29.0834 21.7714C29.0834 22.0878 28.8482 22.3493 28.5432 22.3907L28.4584 22.3964H15.9584C15.6132 22.3964 15.3334 22.1166 15.3334 21.7714Z" fill="white"/>
<path d="M22.9759 17.194C22.7313 16.9504 22.7304 16.5547 22.974 16.3101C23.1954 16.0877 23.5426 16.0668 23.7876 16.2478L23.8579 16.3082L28.8995 21.3282C29.1226 21.5503 29.1428 21.8987 28.9604 22.1438L28.8996 22.2139L23.8579 27.2348C23.6133 27.4783 23.2176 27.4775 22.974 27.2329C22.7526 27.0106 22.7331 26.6633 22.9152 26.419L22.9758 26.3491L27.5725 21.7708L22.9759 17.194Z" fill="white"/>
</svg>
