<svg width="24" height="24" viewBox="0 0 24 24" fill="none" xmlns="http://www.w3.org/2000/svg">
<path d="M19.9029 0.702944C20.8402 -0.234315 22.3598 -0.234315 23.2971 0.702944C24.1491 1.555 24.2266 2.88832 23.5294 3.82788L23.2971 4.09706L4.09706 23.2971C3.1598 24.2343 1.6402 24.2343 0.702944 23.2971C-0.149109 22.445 -0.226569 21.1117 0.470566 20.1721L0.702944 19.9029L19.9029 0.702944Z" fill="black"/>
<path d="M0.702944 0.702944C1.555 -0.149109 2.88832 -0.226569 3.82788 0.470566L4.09706 0.702944L23.2971 19.9029C24.2343 20.8402 24.2343 22.3598 23.2971 23.2971C22.445 24.1491 21.1117 24.2266 20.1721 23.5294L19.9029 23.2971L0.702944 4.09706C-0.234315 3.1598 -0.234315 1.6402 0.702944 0.702944Z" fill="black"/>
</svg>
