<svg width="20" height="19" viewBox="0 0 20 19" fill="none" xmlns="http://www.w3.org/2000/svg">
<mask id="path-1-inside-1_228_4525" fill="white">
<path fill-rule="evenodd" clip-rule="evenodd" d="M9.74992 1.5C9.65892 1.5 9.43492 1.525 9.31592 1.763L7.48992 5.414C7.20092 5.991 6.64392 6.392 5.99992 6.484L1.91192 7.073C1.64192 7.112 1.54992 7.312 1.52192 7.396C1.49692 7.477 1.45692 7.683 1.64292 7.861L4.59892 10.701C5.06992 11.154 5.28392 11.807 5.17192 12.446L4.47592 16.456C4.43292 16.707 4.58992 16.853 4.65992 16.903C4.73392 16.959 4.93192 17.07 5.17692 16.942L8.83192 15.047C9.40792 14.75 10.0939 14.75 10.6679 15.047L14.3219 16.941C14.5679 17.068 14.7659 16.957 14.8409 16.903C14.9109 16.853 15.0679 16.707 15.0249 16.456L14.3269 12.446C14.2149 11.807 14.4289 11.154 14.8999 10.701L17.8559 7.861C18.0429 7.683 18.0029 7.476 17.9769 7.396C17.9499 7.312 17.8579 7.112 17.5879 7.073L13.4999 6.484C12.8569 6.392 12.2999 5.991 12.0109 5.413L10.1829 1.763C10.0649 1.525 9.84092 1.5 9.74992 1.5ZM4.94692 18.5C4.53392 18.5 4.12392 18.37 3.77292 18.114C3.16692 17.67 2.86992 16.937 2.99892 16.199L3.69492 12.189C3.72092 12.04 3.66992 11.889 3.55992 11.783L0.603916 8.943C0.0599161 8.422 -0.135084 7.652 0.0949161 6.937C0.326916 6.214 0.940916 5.697 1.69792 5.589L5.78592 5C5.94392 4.978 6.07992 4.881 6.14792 4.743L7.97492 1.091C8.31192 0.418 8.99192 0 9.74992 0C10.5079 0 11.1879 0.418 11.5249 1.091L13.3529 4.742C13.4219 4.881 13.5569 4.978 13.7139 5L17.8019 5.589C18.5589 5.697 19.1729 6.214 19.4049 6.937C19.6349 7.652 19.4389 8.422 18.8949 8.943L15.9389 11.783C15.8289 11.889 15.7789 12.04 15.8049 12.188L16.5019 16.199C16.6299 16.938 16.3329 17.671 15.7259 18.114C15.1109 18.565 14.3099 18.626 13.6309 18.272L9.97792 16.379C9.83492 16.305 9.66392 16.305 9.52092 16.379L5.86792 18.273C5.57592 18.425 5.26092 18.5 4.94692 18.5Z"/>
</mask>
<path fill-rule="evenodd" clip-rule="evenodd" d="M9.74992 1.5C9.65892 1.5 9.43492 1.525 9.31592 1.763L7.48992 5.414C7.20092 5.991 6.64392 6.392 5.99992 6.484L1.91192 7.073C1.64192 7.112 1.54992 7.312 1.52192 7.396C1.49692 7.477 1.45692 7.683 1.64292 7.861L4.59892 10.701C5.06992 11.154 5.28392 11.807 5.17192 12.446L4.47592 16.456C4.43292 16.707 4.58992 16.853 4.65992 16.903C4.73392 16.959 4.93192 17.07 5.17692 16.942L8.83192 15.047C9.40792 14.75 10.0939 14.75 10.6679 15.047L14.3219 16.941C14.5679 17.068 14.7659 16.957 14.8409 16.903C14.9109 16.853 15.0679 16.707 15.0249 16.456L14.3269 12.446C14.2149 11.807 14.4289 11.154 14.8999 10.701L17.8559 7.861C18.0429 7.683 18.0029 7.476 17.9769 7.396C17.9499 7.312 17.8579 7.112 17.5879 7.073L13.4999 6.484C12.8569 6.392 12.2999 5.991 12.0109 5.413L10.1829 1.763C10.0649 1.525 9.84092 1.5 9.74992 1.5ZM4.94692 18.5C4.53392 18.5 4.12392 18.37 3.77292 18.114C3.16692 17.67 2.86992 16.937 2.99892 16.199L3.69492 12.189C3.72092 12.04 3.66992 11.889 3.55992 11.783L0.603916 8.943C0.0599161 8.422 -0.135084 7.652 0.0949161 6.937C0.326916 6.214 0.940916 5.697 1.69792 5.589L5.78592 5C5.94392 4.978 6.07992 4.881 6.14792 4.743L7.97492 1.091C8.31192 0.418 8.99192 0 9.74992 0C10.5079 0 11.1879 0.418 11.5249 1.091L13.3529 4.742C13.4219 4.881 13.5569 4.978 13.7139 5L17.8019 5.589C18.5589 5.697 19.1729 6.214 19.4049 6.937C19.6349 7.652 19.4389 8.422 18.8949 8.943L15.9389 11.783C15.8289 11.889 15.7789 12.04 15.8049 12.188L16.5019 16.199C16.6299 16.938 16.3329 17.671 15.7259 18.114C15.1109 18.565 14.3099 18.626 13.6309 18.272L9.97792 16.379C9.83492 16.305 9.66392 16.305 9.52092 16.379L5.86792 18.273C5.57592 18.425 5.26092 18.5 4.94692 18.5Z" fill="black"/>
<path d="M9.31592 1.763L10.2103 2.21031L10.2103 2.21021L9.31592 1.763ZM7.48992 5.414L8.38403 5.86183L8.38429 5.86131L7.48992 5.414ZM5.99992 6.484L5.85849 5.49405L5.85731 5.49422L5.99992 6.484ZM1.91192 7.073L1.76931 6.08322L1.76896 6.08327L1.91192 7.073ZM1.52192 7.396L0.573233 7.07977L0.569693 7.09039L0.566392 7.10109L1.52192 7.396ZM1.64292 7.861L2.33573 7.13988L2.33432 7.13853L1.64292 7.861ZM4.59892 10.701L5.29212 9.98026L5.29173 9.97989L4.59892 10.701ZM5.17192 12.446L4.18693 12.2734L4.18665 12.275L5.17192 12.446ZM4.47592 16.456L3.49064 16.285L3.49028 16.2871L4.47592 16.456ZM4.65992 16.903L5.26336 16.1056L5.25237 16.0973L5.24115 16.0893L4.65992 16.903ZM5.17692 16.942L4.71663 16.0542L4.71386 16.0557L5.17692 16.942ZM8.83192 15.047L8.37363 14.1582L8.37163 14.1592L8.83192 15.047ZM10.6679 15.047L11.1281 14.1592L11.1275 14.1588L10.6679 15.047ZM14.3219 16.941L13.8617 17.8288L13.8632 17.8296L14.3219 16.941ZM14.8409 16.903L14.2597 16.0893L14.2566 16.0915L14.8409 16.903ZM15.0249 16.456L16.0106 16.2871L16.0101 16.2845L15.0249 16.456ZM14.3269 12.446L15.3121 12.2745L15.3119 12.2734L14.3269 12.446ZM14.8999 10.701L14.2071 9.97989L14.2067 9.98026L14.8999 10.701ZM17.8559 7.861L17.1664 7.13667L17.1631 7.13989L17.8559 7.861ZM17.9769 7.396L17.0249 7.70201L17.0259 7.70509L17.9769 7.396ZM17.5879 7.073L17.7309 6.08327L17.7305 6.08322L17.5879 7.073ZM13.4999 6.484L13.6425 5.49422L13.6416 5.49408L13.4999 6.484ZM12.0109 5.413L12.9053 4.96579L12.905 4.9652L12.0109 5.413ZM10.1829 1.763L9.28698 2.2072L9.28878 2.2108L10.1829 1.763ZM3.77292 18.114L3.1819 18.9207L3.18365 18.9219L3.77292 18.114ZM2.99892 16.199L3.98398 16.3712L3.98419 16.37L2.99892 16.199ZM3.69492 12.189L2.7098 12.0171L2.70965 12.018L3.69492 12.189ZM3.55992 11.783L4.25381 11.0629L4.25273 11.0619L3.55992 11.783ZM0.603916 8.943L1.29673 8.22188L1.29559 8.22079L0.603916 8.943ZM0.0949161 6.937L1.04688 7.24322L1.0471 7.24254L0.0949161 6.937ZM1.69792 5.589L1.83915 6.57898L1.84052 6.57878L1.69792 5.589ZM5.78592 5L5.648 4.00954L5.64331 4.01022L5.78592 5ZM6.14792 4.743L5.25357 4.29558L5.2509 4.30099L6.14792 4.743ZM7.97492 1.091L7.08075 0.643255L7.08059 0.643591L7.97492 1.091ZM11.5249 1.091L12.4191 0.643297L12.4191 0.643255L11.5249 1.091ZM13.3529 4.742L14.2486 4.29736L14.2471 4.2943L13.3529 4.742ZM13.7139 5L13.8565 4.01021L13.8527 4.00968L13.7139 5ZM17.8019 5.589L17.6593 6.57878L17.6607 6.57898L17.8019 5.589ZM19.4049 6.937L18.4527 7.24254L18.453 7.24322L19.4049 6.937ZM18.8949 8.943L18.2032 8.22079L18.2021 8.22189L18.8949 8.943ZM15.9389 11.783L15.2461 11.0619L15.245 11.0629L15.9389 11.783ZM15.8049 12.188L16.7902 12.0168L16.7898 12.015L15.8049 12.188ZM16.5019 16.199L17.4872 16.0283L17.4872 16.0278L16.5019 16.199ZM15.7259 18.114L15.1364 17.3062L15.1346 17.3076L15.7259 18.114ZM13.6309 18.272L14.0932 17.3853L14.091 17.3841L13.6309 18.272ZM9.97792 16.379L10.438 15.4911L10.4375 15.4909L9.97792 16.379ZM9.52092 16.379L9.06132 15.4909L9.06063 15.4912L9.52092 16.379ZM5.86792 18.273L5.40763 17.3852L5.40618 17.386L5.86792 18.273ZM9.74992 0.5C9.5256 0.5 8.79714 0.564489 8.42149 1.31579L10.2103 2.21021C10.1535 2.32391 10.051 2.41167 9.94438 2.45834C9.85723 2.49649 9.78619 2.5 9.74992 2.5V0.5ZM8.42154 1.31569L6.59554 4.96669L8.38429 5.86131L10.2103 2.21031L8.42154 1.31569ZM6.5958 4.96617C6.45436 5.24855 6.17948 5.4482 5.85849 5.49405L6.14134 7.47395C7.10835 7.3358 7.94747 6.73345 8.38403 5.86183L6.5958 4.96617ZM5.85731 5.49422L1.76931 6.08322L2.05452 8.06278L6.14252 7.47378L5.85731 5.49422ZM1.76896 6.08327C0.944921 6.2023 0.64988 6.84983 0.573233 7.07977L2.4706 7.71223C2.45837 7.74891 2.43016 7.82083 2.36151 7.89532C2.2785 7.98539 2.16491 8.04683 2.05488 8.06273L1.76896 6.08327ZM0.566392 7.10109C0.498114 7.32231 0.357245 8.01476 0.951517 8.58347L2.33432 7.13853C2.42255 7.22297 2.48091 7.34659 2.49608 7.47228C2.50868 7.57661 2.48882 7.65406 2.47744 7.69091L0.566392 7.10109ZM0.9501 8.58211L3.9061 11.4221L5.29173 9.97989L2.33573 7.13989L0.9501 8.58211ZM3.90572 11.4217C4.13842 11.6456 4.2411 11.9643 4.18693 12.2734L6.1569 12.6186C6.32673 11.6497 6.00141 10.6624 5.29212 9.98026L3.90572 11.4217ZM4.18665 12.275L3.49065 16.285L5.46119 16.627L6.15719 12.617L4.18665 12.275ZM3.49028 16.2871C3.35135 17.0981 3.88207 17.5763 4.07868 17.7167L5.24115 16.0893C5.28252 16.1188 5.34238 16.1693 5.39243 16.2564C5.45308 16.3619 5.4835 16.4968 5.46156 16.6249L3.49028 16.2871ZM4.05647 17.7004C4.26854 17.8609 4.89656 18.2167 5.63998 17.8283L4.71386 16.0557C4.81387 16.0034 4.94191 15.9881 5.05961 16.0128C5.15612 16.0331 5.22186 16.0742 5.26336 16.1056L4.05647 17.7004ZM5.6372 17.8298L9.2922 15.9348L8.37163 14.1592L4.71663 16.0542L5.6372 17.8298ZM9.29021 15.9358C9.57917 15.7868 9.92309 15.7875 10.2084 15.9352L11.1275 14.1588C10.2647 13.7125 9.23666 13.7132 8.37363 14.1582L9.29021 15.9358ZM10.2077 15.9348L13.8617 17.8288L14.7821 16.0532L11.1281 14.1592L10.2077 15.9348ZM13.8632 17.8296C14.606 18.2131 15.2286 17.8561 15.4252 17.7145L14.2566 16.0915C14.2872 16.0694 14.3483 16.0303 14.4421 16.0108C14.5561 15.9871 14.6816 16.0013 14.7807 16.0524L13.8632 17.8296ZM15.4222 17.7167C15.6188 17.5763 16.1495 17.0981 16.0106 16.2871L14.0393 16.6249C14.0173 16.4968 14.0477 16.3619 14.1084 16.2564C14.1585 16.1693 14.2183 16.1188 14.2597 16.0893L15.4222 17.7167ZM16.0101 16.2845L15.3121 12.2745L13.3417 12.6175L14.0397 16.6275L16.0101 16.2845ZM15.3119 12.2734C15.2577 11.9643 15.3604 11.6456 15.5931 11.4217L14.2067 9.98026C13.4974 10.6624 13.1721 11.6497 13.3419 12.6186L15.3119 12.2734ZM15.5927 11.4221L18.5487 8.58211L17.1631 7.13989L14.2071 9.97989L15.5927 11.4221ZM18.5454 8.58532C19.142 8.01737 19.0045 7.32233 18.9279 7.08691L17.0259 7.70509C17.0105 7.65772 16.9908 7.57735 17.0035 7.47208C17.0188 7.34511 17.0778 7.22104 17.1665 7.13668L18.5454 8.58532ZM18.9289 7.08999C18.8513 6.84855 18.5543 6.20221 17.7309 6.08327L17.445 8.06273C17.3351 8.04686 17.2211 7.98544 17.1375 7.89456C17.0684 7.81939 17.039 7.74578 17.0249 7.70201L18.9289 7.08999ZM17.7305 6.08322L13.6425 5.49422L13.3573 7.47378L17.4453 8.06278L17.7305 6.08322ZM13.6416 5.49408C13.3219 5.44834 13.047 5.24905 12.9053 4.96579L11.1165 5.86021C11.5529 6.73295 12.392 7.33566 13.3583 7.47392L13.6416 5.49408ZM12.905 4.9652L11.077 1.3152L9.28878 2.2108L11.1168 5.8608L12.905 4.9652ZM11.0788 1.3188C10.7047 0.564083 9.97314 0.5 9.74992 0.5V2.5C9.71379 2.5 9.64244 2.49653 9.55481 2.45812C9.44746 2.41106 9.34409 2.32237 9.28699 2.2072L11.0788 1.3188ZM4.94692 17.5C4.7455 17.5 4.54188 17.4371 4.36218 17.3061L3.18365 18.9219C3.70596 19.3029 4.32233 19.5 4.94692 19.5V17.5ZM4.36393 17.3073C4.06268 17.0866 3.92091 16.732 3.98398 16.3712L2.01385 16.0268C1.81892 17.142 2.27115 18.2534 3.1819 18.9207L4.36393 17.3073ZM3.98419 16.37L4.68019 12.36L2.70965 12.018L2.01365 16.028L3.98419 16.37ZM4.68003 12.3609C4.76486 11.8747 4.59567 11.3923 4.25381 11.0629L2.86602 12.5031C2.74416 12.3857 2.67697 12.2053 2.7098 12.0171L4.68003 12.3609ZM4.25273 11.0619L1.29673 8.22189L-0.0889001 9.66411L2.8671 12.5041L4.25273 11.0619ZM1.29559 8.22079C1.02748 7.96401 0.934319 7.59313 1.04688 7.24322L-0.857043 6.63077C-1.20449 7.71087 -0.907644 8.87999 -0.0877585 9.66521L1.29559 8.22079ZM1.0471 7.24254C1.16133 6.88655 1.45868 6.63326 1.83915 6.57898L1.55668 4.59902C0.423154 4.76074 -0.507495 5.54145 -0.857263 6.63146L1.0471 7.24254ZM1.84052 6.57878L5.92852 5.98978L5.64331 4.01022L1.55531 4.59922L1.84052 6.57878ZM5.92383 5.99044C6.39854 5.92435 6.82533 5.63066 7.04493 5.18501L5.2509 4.30099C5.3345 4.13134 5.4893 4.03165 5.64801 4.00956L5.92383 5.99044ZM7.04225 5.19041L8.86925 1.53841L7.08059 0.643591L5.25359 4.29559L7.04225 5.19041ZM8.86908 1.53874C9.03508 1.20724 9.36711 1 9.74992 1V-1C8.61673 -1 7.58875 -0.371238 7.08075 0.643255L8.86908 1.53874ZM9.74992 1C10.1327 1 10.4648 1.20724 10.6308 1.53874L12.4191 0.643255C11.9111 -0.371237 10.8831 -1 9.74992 -1V1ZM10.6307 1.5387L12.4587 5.1897L14.2471 4.2943L12.4191 0.643297L10.6307 1.5387ZM12.4572 5.18663C12.6753 5.62593 13.0964 5.92323 13.5751 5.99032L13.8527 4.00968C14.0175 4.03277 14.1686 4.13607 14.2486 4.29737L12.4572 5.18663ZM13.5713 5.98978L17.6593 6.57878L17.9445 4.59922L13.8565 4.01022L13.5713 5.98978ZM17.6607 6.57898C18.0412 6.63326 18.3385 6.88655 18.4527 7.24254L20.3571 6.63146C20.0073 5.54145 19.0767 4.76074 17.9432 4.59902L17.6607 6.57898ZM18.453 7.24322C18.5652 7.59212 18.4721 7.96327 18.2032 8.22079L19.5866 9.66521C20.4057 8.88072 20.7046 7.71188 20.3569 6.63077L18.453 7.24322ZM18.2021 8.22189L15.2461 11.0619L16.6317 12.5041L19.5877 9.66411L18.2021 8.22189ZM15.245 11.0629C14.9005 11.3949 14.7353 11.8787 14.82 12.361L16.7898 12.015C16.8226 12.2013 16.7573 12.3831 16.6328 12.5031L15.245 11.0629ZM14.8197 12.3592L15.5167 16.3702L17.4872 16.0278L16.7902 12.0168L14.8197 12.3592ZM15.5166 16.3697C15.5795 16.7329 15.4368 17.087 15.1364 17.3062L16.3154 18.9218C17.229 18.255 17.6803 17.1431 17.4872 16.0283L15.5166 16.3697ZM15.1346 17.3076C14.8276 17.5327 14.4352 17.5636 14.0932 17.3853L13.1686 19.1587C14.1846 19.6884 15.3943 19.5973 16.3173 18.9204L15.1346 17.3076ZM14.091 17.3841L10.438 15.4911L9.51782 17.2669L13.1708 19.1599L14.091 17.3841ZM10.4375 15.4909C10.0063 15.2677 9.49257 15.2677 9.06132 15.4909L9.98051 17.2671C9.83527 17.3423 9.66356 17.3423 9.51832 17.2671L10.4375 15.4909ZM9.06063 15.4912L5.40763 17.3852L6.32821 19.1608L9.9812 17.2668L9.06063 15.4912ZM5.40618 17.386C5.25718 17.4635 5.10062 17.5 4.94692 17.5V19.5C5.42121 19.5 5.89465 19.3865 6.32965 19.16L5.40618 17.386Z" fill="#85586F" mask="url(#path-1-inside-1_228_4525)"/>
<path d="M14.3303 16.4972C14.4375 16.4615 14.5418 16.3317 14.6199 16.2547C14.6414 16.2335 14.7516 16.1355 14.6637 16.1941" stroke="#85586F" stroke-linecap="round"/>
<path d="M14.6941 16.679C14.6941 16.8317 14.6807 16.8418 14.5055 16.753C14.205 16.6008 13.9507 16.3914 13.6736 16.2041C13.6131 16.1631 13.5428 16.1111 13.4682 16.1031C13.1661 16.0704 13.1005 15.8529 12.8822 15.6855C12.6158 15.4812 12.3507 15.4452 12.0437 15.4043C11.9432 15.3909 11.8612 15.3071 11.7574 15.2898C11.6856 15.2778 11.5941 15.314 11.557 15.2359C11.5249 15.168 11.5022 15.0902 11.4611 15.0271C11.3743 14.8941 11.1387 15.0138 11.1074 15.1433C11.0926 15.205 11.7598 14.9698 11.7945 14.9547C12.03 14.8519 12.2387 14.771 12.4983 14.7526C12.9374 14.7215 13.3819 14.7392 13.8218 14.7392C14.0678 14.7392 14.2737 14.6998 14.4145 14.9362C14.4401 14.979 14.56 15.3329 14.4415 15.3437C14.2683 15.3594 14.0815 15.3493 13.9094 15.3285C13.804 15.3158 13.549 15.2297 13.448 15.2915C13.3648 15.3423 13.9472 15.6673 14.0273 15.6787C14.0538 15.6825 14.0723 15.7074 14.0946 15.7225C14.2263 15.8121 14.2047 15.5908 14.2259 15.4885C14.2931 15.1647 14.3125 14.8424 14.295 14.5118C14.2806 14.2409 14.1683 14.0263 14.1232 13.7709C14.081 13.5319 14.1149 13.2612 14.0946 13.0183C14.08 12.8431 14.1149 12.6852 14.1182 12.5131C14.1232 12.2488 14.1122 11.9286 14.167 11.6729C14.313 10.9916 14.6388 10.1622 15.2683 9.78694C15.8576 9.43558 16.4148 9.00283 16.9605 8.58635C17.1884 8.41245 17.4149 8.22391 17.6206 8.02395C17.7083 7.9387 17.765 7.90542 17.6947 7.79494C17.6309 7.69468 17.6689 7.5637 17.5869 7.48174C17.5092 7.40404 17.459 7.30219 17.3377 7.28979C17.1198 7.2675 16.8785 7.32394 16.6642 7.27631C16.4964 7.23903 16.3433 7.19228 16.1775 7.15676C15.8769 7.09235 15.6191 6.88353 15.3154 6.81662C14.8847 6.72173 14.4162 6.6974 13.9767 6.67686C13.439 6.65173 12.8693 6.38377 12.4074 6.13129C12.0529 5.93752 11.6469 5.78507 11.3583 5.49648C11.1874 5.32556 11.0097 5.17757 10.9239 4.93913C10.8957 4.86066 10.9357 4.63432 10.9357 4.67644" stroke="#85586F" stroke-linecap="round"/>
<path d="M11.7843 5.04019C11.2927 4.33017 10.7423 3.65628 10.3126 2.90506C10.2586 2.81074 10.2484 2.78096 10.2082 2.69627C10.2019 2.68304 10.1965 2.65071 10.1846 2.65922C10.1529 2.68186 10.2471 2.94075 10.252 2.95558C10.4145 3.44612 10.6838 3.9697 11.0434 4.34644C11.2686 4.58235 10.6793 3.80169 10.545 3.50452C10.2945 2.95042 10.1559 2.34739 10.1156 1.7432C10.1093 1.64895 10.092 1.60922 10.0263 1.55293C9.97426 1.50828 9.94779 1.47584 9.88153 1.5142C9.81651 1.55185 9.66269 1.58482 9.63232 1.64554" stroke="#85586F" stroke-linecap="round"/>
<path d="M9.51113 1.85767C9.51113 1.93225 9.47909 1.99822 9.44378 2.0631C9.33231 2.2679 9.22159 2.47694 9.10027 2.67602C8.85717 3.07496 8.60617 3.45662 8.38969 3.87156C8.13773 4.35448 7.8405 4.76724 7.49388 5.18496C7.4 5.2981 7.26612 5.38914 7.16384 5.49142C7.09361 5.56165 7.07419 5.65846 7.01903 5.73726C6.92167 5.87635 6.83611 6.01873 6.75803 6.17002C6.66295 6.35423 6.40142 6.52268 6.19226 6.55057C5.86978 6.59356 5.53185 6.53927 5.2072 6.5573C4.7752 6.5813 4.33857 6.74017 3.93253 6.87387C3.4147 7.04437 2.95812 7.03749 2.41874 7.04057C2.13972 7.04216 1.86198 7.0715 1.58355 7.04057C1.52685 7.03427 1.48803 6.99069 1.44884 7.0473C1.36442 7.16925 1.31742 7.55017 1.47915 7.64002C1.7518 7.79149 2.02294 8.02404 2.20321 8.28157C2.2961 8.41427 2.429 8.54561 2.5585 8.64696C2.77274 8.81463 2.9873 9.06841 3.15964 9.28178C3.26525 9.41253 3.37177 9.54773 3.4863 9.67075C3.62494 9.81965 3.73338 10.0488 3.89043 10.1725C3.95552 10.2238 3.81674 10.0238 3.77256 9.95363C3.48056 9.49019 3.21295 9.02849 2.85486 8.6116C2.58131 8.29315 2.26487 8.00421 2.01125 7.67033C1.92574 7.55776 1.69108 7.20428 1.77214 7.32009C1.89156 7.49068 1.99262 7.67734 2.10891 7.84208C2.15707 7.9103 2.28213 7.96392 2.35475 8.00542C2.50029 8.08858 2.44597 7.88825 2.44905 7.79493C2.45191 7.70825 2.48957 7.36222 2.63596 7.41102C2.90226 7.49978 3.00121 7.97715 3.06534 8.20579C3.12785 8.42864 3.14617 8.52841 3.14617 8.23105C3.14617 7.97118 3.1395 7.19164 3.14617 7.45143C3.15452 7.77713 3.18075 8.1047 3.24383 8.4247C3.26499 8.53205 3.29146 8.64128 3.32297 8.74631C3.35129 8.84071 3.35858 8.55242 3.37349 8.455C3.39648 8.30478 3.41473 8.15573 3.41895 8.00373C3.42268 7.86934 3.41832 7.93887 3.41895 8.03067C3.4218 8.44368 3.45129 9.68046 3.47789 9.26831C3.52005 8.61476 3.46179 7.9605 3.53345 7.30662C3.5411 7.2368 3.56347 7.02981 3.57218 7.0995C3.61527 7.4442 3.62056 7.80007 3.62775 8.14686C3.6431 8.88773 3.63131 9.62811 3.685 10.3679C3.68688 10.3937 3.69173 10.4712 3.69173 10.4453C3.69173 10.2292 3.69179 10.0131 3.69342 9.79704C3.70099 8.79337 3.7398 7.79333 3.79445 6.79136C3.80272 6.6397 3.80808 6.48844 3.81297 6.33672C3.81978 6.12578 3.8124 6.7588 3.81297 6.96985C3.81494 7.69108 3.84706 8.41024 3.88706 9.13023C3.89088 9.19904 3.87891 9.3743 3.91064 9.45185C3.97106 9.59956 3.93238 9.13322 3.93421 8.97363C3.94085 8.39458 3.96155 7.81719 3.99988 7.23926C4.03046 6.77817 4.09377 5.40054 4.14132 5.86019C4.17294 6.16581 4.14815 6.48826 4.15311 6.79472C4.16135 7.30331 4.17548 7.81161 4.17668 8.3203C4.1779 8.83443 4.17668 10.3768 4.17668 9.86271C4.17668 9.52818 4.17668 9.19366 4.17668 8.85913" stroke="#85586F" stroke-linecap="round"/>
<path d="M4.66172 6.97998C4.49118 7.21874 4.45196 7.63131 4.38893 7.90442C4.22729 8.60487 4.17677 9.29716 4.17677 10.0143C4.17677 10.3939 4.15794 10.8043 4.26769 11.1728C4.38718 11.5739 4.43822 10.9545 4.44618 10.8192C4.46351 10.5245 4.46517 10.8231 4.47312 10.9337C4.48951 11.1613 4.49003 11.3914 4.52532 11.6173C4.58308 11.9869 4.71355 12.3434 4.76948 12.7152C4.88505 13.4833 4.85875 14.2515 4.69202 15.0136C4.60807 15.3975 4.5299 15.8089 4.48154 16.1957C4.46186 16.3531 4.45828 16.5391 4.5169 16.6857C4.62326 16.9516 5.22383 16.7573 5.37735 16.6436C5.58256 16.4916 5.74922 16.2779 5.91955 16.0896C5.98241 16.0202 6.0152 16.0322 6.09299 16.0054C6.31538 15.929 6.50522 15.836 6.74296 15.8C7.22076 15.7276 7.71209 15.5354 8.1574 15.3454C8.53894 15.1825 9.01569 15.1385 9.42702 15.1063C9.77594 15.0789 10.1266 14.9817 10.4811 14.9817" stroke="#85586F" stroke-linecap="round"/>
<path d="M10.6024 14.8908C9.54448 14.6466 8.49566 15.2632 7.43509 15.31C6.8972 15.3338 6.37035 15.306 5.83543 15.3892C5.52388 15.4376 5.4011 15.7301 5.26123 15.9819C5.23628 16.0268 5.18084 16.0756 5.14673 16.1183C5.13974 16.127 5.11642 15.592 5.11642 15.5744C5.11642 15.1534 5.11642 14.7325 5.11642 14.3115C5.11642 14.0387 5.11642 13.7659 5.11642 13.4932C5.11642 13.3596 5.10167 12.9596 5.11642 13.0924C5.15761 13.4631 5.22234 13.8234 5.33532 14.1802C5.43263 14.4875 5.54599 14.8083 5.71587 15.0844C5.82106 15.2553 5.87653 15.1533 5.9011 14.9901C5.96131 14.5901 5.97169 14.0719 5.68725 13.7508C5.54133 13.586 5.31089 13.506 5.19219 13.318C5.04347 13.0826 5.48012 13.795 5.63168 14.0286C5.88272 14.4156 6.1361 14.8121 6.43656 15.1635C6.55242 15.299 6.66385 15.3959 6.63526 15.1534C6.55821 14.5 6.32929 13.8518 6.12336 13.2305C6.00738 12.8805 5.90232 12.5132 5.75965 12.173C5.64881 11.9087 5.82603 12.7453 5.90783 13.02C6.01761 13.3887 6.15215 13.7531 6.30522 14.1061C6.32999 14.1632 6.35595 14.22 6.38605 14.2745C6.42071 14.3372 6.44137 14.3622 6.43824 14.2778C6.43004 14.0564 6.34655 13.8147 6.28165 13.6077C6.15622 13.2076 6.01039 12.81 5.82027 12.4357C5.72581 12.2497 5.61669 12.0533 5.45319 11.9171C5.42836 11.8964 5.37331 11.853 5.36226 11.8834C5.32869 11.9757 5.35839 12.1442 5.35889 12.237C5.36032 12.4983 5.35213 12.7722 5.3892 13.0318C5.4235 13.2718 5.30226 12.5545 5.26797 12.3145" stroke="#85586F" stroke-linecap="round"/>
<path d="M4.63135 7.73769C4.63135 8.31515 4.7304 8.87857 4.86709 9.43839C4.94674 9.76463 5.0306 10.0918 5.15334 10.4049C5.16561 10.4362 5.3251 10.8631 5.3251 10.7249C5.3251 9.95737 5.21059 9.19129 5.21059 8.42134C5.21059 8.19718 5.21556 7.97433 5.23585 7.75117C5.23972 7.70864 5.23753 8.0873 5.23753 8.10478C5.23753 9.50249 5.23377 10.9 5.26111 12.2976C5.26686 12.5914 5.26521 12.4765 5.26784 12.695C5.26829 12.732 5.26784 12.6209 5.26784 12.5838C5.26784 11.8138 5.26111 11.0435 5.27121 10.2736C5.28154 9.48611 5.32207 8.70176 5.3874 7.91787C5.40447 7.71306 5.50119 7.51426 5.51032 7.31336C5.51324 7.24912 5.4959 6.82409 5.44802 6.95975C5.33694 7.27448 5.48451 7.55664 5.55747 7.86904C5.73622 8.63445 5.78832 9.39621 5.7831 10.1793C5.78236 10.2912 5.80114 10.4562 5.75953 10.5632C5.73308 10.6312 5.75716 10.4172 5.75953 10.3443C5.76865 10.064 5.78498 9.71054 5.80331 9.43839C5.85808 8.6254 5.94306 7.81296 6.06262 7.0069C6.11295 6.66761 6.23788 5.65646 6.26637 5.99827C6.28763 6.25336 6.26836 6.52821 6.25963 6.78127C6.22184 7.87743 6.1335 8.97215 6.04073 10.0648C5.96292 10.9813 5.87088 11.8963 5.77637 12.8111C5.75836 12.9854 5.74327 13.1283 5.72754 13.2961C5.71259 13.4555 5.72247 13.2583 5.72248 13.2574C5.74208 11.7193 5.99805 10.173 6.35898 8.68065C6.45308 8.2916 6.55606 7.90487 6.6486 7.51543C6.65552 7.4863 6.66271 7.45771 6.66208 7.51206C6.65968 7.71845 6.63282 7.92805 6.60482 8.13172C6.48694 8.98943 6.2736 9.83335 6.18049 10.6945C6.14791 10.996 6.19089 10.0882 6.20238 9.78526C6.25918 8.28839 6.32249 6.78019 6.53747 5.29611C6.55407 5.1815 6.56155 4.84997 6.60819 4.95597C6.65258 5.05684 6.6728 5.17472 6.68565 5.28264C6.73152 5.66792 6.72183 6.06075 6.72269 6.44786C6.72421 7.12244 6.73132 7.79817 6.6907 8.47186C6.68247 8.60834 6.70478 8.96235 6.6183 9.09825C6.60535 9.11859 6.60385 9.05163 6.60314 9.02753C6.59781 8.84632 6.60427 8.71158 6.6183 8.51732C6.69093 7.51133 6.85492 6.51288 7.11672 5.53858C7.18016 5.30248 7.25321 5.05873 7.34909 4.83136C7.41191 4.68238 7.38931 4.87003 7.3895 4.90545C7.40129 7.13335 7.23651 9.34947 7.13692 11.5735C7.10358 12.3181 7.07595 14.5531 7.05778 13.808C7.00731 11.7388 7.1665 9.65842 7.38445 7.60299C7.4526 6.96027 7.52684 6.31745 7.61177 5.67666C7.61485 5.65341 7.62727 5.58426 7.62524 5.60762C7.59631 5.94028 7.50568 6.28007 7.41981 6.59941C6.79018 8.94094 5.85228 11.1975 5.27795 13.5537C5.18767 13.9241 5.07179 15.0631 5.15166 14.6903C5.41095 13.4803 5.86462 12.3149 6.16702 11.1155C6.24351 10.8121 6.20787 11.0977 6.20743 11.2132C6.20489 11.8818 6.18574 12.5501 6.17881 13.2186C6.17674 13.4184 6.16287 14.0173 6.17881 13.8181C6.20448 13.4972 6.20827 13.173 6.22427 12.8516C6.25089 12.3167 6.28083 11.7822 6.3253 11.2485C6.32731 11.2245 6.34797 10.9875 6.35561 10.9168C6.36807 10.8016 6.37075 11.1481 6.37919 11.2637C6.48584 12.7248 6.70753 14.1851 6.91465 15.635C6.92695 15.7211 6.96433 15.9779 6.96517 15.8909C6.96903 15.4891 6.96517 15.0871 6.96517 14.6853C6.96517 14.4686 6.96517 14.252 6.96517 14.0353C6.96517 13.9318 6.99709 14.2399 7.01568 14.3418C7.0576 14.5713 7.06962 15.0654 7.41644 14.9244C7.69997 14.8091 7.88499 14.6521 8.20449 14.6482C8.39127 14.646 8.55144 14.5953 8.73322 14.559C9.30183 14.4453 7.57532 14.6459 6.99548 14.6398C6.73694 14.6371 6.46847 14.6219 6.21585 14.5607C6.10147 14.5329 6.42606 14.4487 6.54084 14.4226C7.92834 14.1073 9.36771 14.073 10.7841 14.0488C11.1647 14.0423 11.549 14.0578 11.9292 14.0353C12.1771 14.0206 11.8731 14.0089 11.8096 14.0067C9.88952 13.9393 7.97974 13.7104 6.05926 13.6531C5.62811 13.6402 5.8446 13.6414 6.08788 13.6615C7.2345 13.7561 8.37002 13.8991 9.52126 13.9444C10.1777 13.9702 10.8368 13.9724 11.4914 14.0353C11.5057 14.0367 11.7204 14.0393 11.7473 14.0858C11.9209 14.3856 11.0282 14.4323 10.9391 14.4243C10.851 14.4164 10.4409 14.3897 10.3884 14.2761C10.3717 14.2399 10.4665 14.2569 10.5063 14.2559C10.6136 14.2533 10.8987 14.2542 10.9761 14.2542C11.5194 14.2542 12.0628 14.2542 12.6061 14.2542C12.8899 14.2542 13.2153 14.2137 13.4985 14.2542C13.6092 14.27 13.2763 14.2794 13.1651 14.2913C12.8559 14.3243 12.5462 14.3514 12.2356 14.3687C11.97 14.3836 12.2269 14.3771 12.303 14.3754C12.761 14.3656 13.1954 14.2748 13.6231 14.1094C13.8713 14.0134 14.0135 13.9486 13.677 13.9208C13.3111 13.8906 12.9529 13.8995 12.5892 13.9511C12.485 13.9659 12.1742 14.0117 12.2794 14.0117C12.5637 14.0117 12.8182 13.9536 13.0843 13.8535C13.3229 13.7636 13.5602 13.6679 13.7848 13.547C13.8995 13.4852 13.8703 13.5531 13.8757 13.6548C13.8994 14.1007 14.2298 14.4415 14.4819 14.7846C14.8084 15.229 15.0805 15.6061 15.0881 16.194C15.0888 16.2512 15.1294 16.5195 15.0611 16.4028C14.8497 16.0412 14.6325 15.7281 14.3438 15.4228C14.0978 15.1626 13.8384 14.9174 13.544 14.7122C13.3901 14.605 13.2173 14.526 13.0691 14.4108C12.8067 14.2067 12.6221 13.9134 12.3434 13.7288C12.0965 13.5654 11.9866 13.3203 11.8029 13.0957C11.7357 13.0136 11.6591 12.9651 11.6328 12.86" stroke="#85586F" stroke-linecap="round"/>
<path d="M7.57138 11.1627C7.59651 11.8915 8.13447 12.5511 8.56148 13.0992C8.6332 13.1912 8.76398 13.3498 8.85784 13.4427C8.87798 13.4626 8.90935 13.5106 8.92856 13.4898C8.97353 13.4411 8.81428 13.1508 8.79385 13.1194C8.66115 12.9151 8.127 12.6356 7.88121 12.7994C7.82244 12.8386 7.81778 12.9827 7.80712 13.0385C7.79181 13.1187 7.76523 13.4671 7.74987 13.1867C7.74442 13.0873 7.62311 12.3759 7.49392 12.7573C7.43188 12.9405 7.39653 13.1481 7.4956 13.3265C7.63364 13.5749 8.02671 13.4882 8.24492 13.4561C8.98458 13.3474 9.69574 13.1071 10.3986 12.86C10.578 12.797 10.8933 12.6851 11.0856 12.6058C11.1387 12.5839 11.2849 12.5219 11.2287 12.5098C10.9759 12.4551 10.6264 12.6139 10.4053 12.7119C10.3056 12.756 10.1421 12.8381 10.0416 12.9005C10.0229 12.9121 9.97417 12.925 9.98939 12.9409C10.0104 12.9628 10.0501 12.9428 10.0803 12.9409C10.1568 12.936 10.2329 12.9266 10.3093 12.9207C10.915 12.8739 11.5208 12.8667 12.1279 12.8533C12.2219 12.8512 12.8434 12.9083 12.9395 12.7994C13.0123 12.7169 12.7184 12.7739 12.6095 12.7893C12.1867 12.8492 11.7733 12.9769 11.3634 13.0924C11.2624 13.1209 10.8431 13.2015 11.2018 13.1093C11.712 12.9781 12.2696 12.9981 12.7913 12.988C13.0955 12.9821 13.3998 12.9813 13.704 12.9813C14.1815 12.9813 12.75 13.0453 12.2777 13.116C11.6129 13.2155 10.9598 13.3618 10.3026 13.4999C10.1973 13.522 9.88351 13.5841 9.99108 13.5841C10.2461 13.5841 10.502 13.5618 10.7572 13.5588C11.2316 13.5533 11.7324 13.5813 12.1919 13.4393C12.2541 13.4201 12.8658 13.0518 12.5623 12.9813C11.7977 12.8036 10.9746 12.6176 10.1881 12.6176C9.35671 12.6176 11.8519 12.6247 12.6819 12.5772C13.3952 12.5363 14.1196 12.4782 14.8119 12.2909C14.892 12.2692 15.043 12.2289 15.1268 12.173C15.1851 12.1342 15.1024 12.1373 15.083 12.136C13.9743 12.0595 12.8204 12.3214 11.7372 12.5199C11.6722 12.5318 10.9317 12.7392 10.8465 12.6479C10.762 12.5574 11.4584 12.2283 11.4847 12.2168C12.1936 11.9058 12.9613 11.7041 13.6535 11.358C13.7198 11.3249 13.5053 11.3651 13.4312 11.3682C13.247 11.3757 13.0546 11.3627 12.8755 11.316C12.799 11.296 12.9507 11.2295 12.953 11.2284C13.295 11.0601 13.6723 10.9503 14.0323 10.8293C14.5071 10.6697 14.9867 10.5226 15.4518 10.3359C15.6189 10.2689 16.0998 10.0251 15.93 10.0851C15.7653 10.1432 15.5949 10.3039 15.4383 10.3814C15.0685 10.5646 14.6738 10.7025 14.2664 10.7721C14.2339 10.7776 13.9721 10.8468 13.9667 10.7418C13.9588 10.5895 14.055 10.4174 14.1485 10.3073C14.423 9.98414 14.8354 9.77382 15.1959 9.56643C15.6293 9.31708 16.072 9.08472 16.5093 8.84237C16.6065 8.78848 16.8946 8.62659 16.7888 8.66052C16.6458 8.70633 16.438 8.77989 16.287 8.72955C16.148 8.68321 16.2735 8.12687 16.3055 8.03244C16.3331 7.95121 16.5118 7.62364 16.5362 7.87584C16.5467 7.98422 16.5271 8.09894 16.5429 8.20587C16.5545 8.28357 16.6228 8.07056 16.6642 8.00381C16.7049 7.9382 16.9902 7.57335 16.8124 7.83206C16.6759 8.03054 16.591 8.1547 16.3409 8.20419C16.1659 8.23882 15.916 8.29221 15.7381 8.24629C15.6508 8.22377 15.8518 8.09926 15.9317 8.0577C16.0703 7.98562 16.7785 7.73267 16.415 8.12C15.7642 8.81343 14.5751 8.28643 13.9161 7.90952C13.166 7.48043 12.4135 7.08176 11.6059 6.76786C11.0348 6.54588 10.4549 6.40109 9.86815 6.23577C9.61852 6.16543 9.63241 5.71452 9.63241 5.50497C9.63241 4.97849 9.56553 4.4796 9.51791 3.95583C9.49616 3.71655 9.48725 3.49596 9.50444 3.25534C9.51063 3.16876 9.50174 2.97062 9.60884 2.92531C9.66538 2.90139 9.72148 2.89939 9.74692 2.83438C9.76363 2.79166 9.74261 2.82755 9.72671 2.84112C9.58346 2.9634 9.38772 3.0168 9.2064 3.04823C9.11034 3.06488 9.00655 3.04108 8.97908 3.15095C8.92187 3.37978 8.91094 3.62099 8.88983 3.8548C8.83238 4.49125 8.68913 5.04725 8.25839 5.54202C8.02916 5.80532 8.04641 5.61015 8.12705 5.40394C8.21635 5.17559 8.33056 4.95506 8.46045 4.74724C8.4649 4.74012 8.61919 4.48749 8.57832 4.6361C8.39853 5.2899 8.14054 5.9524 7.84416 6.56075C7.80638 6.6383 7.6686 6.85773 7.7145 6.7847C7.89413 6.49894 8.14496 6.25091 8.37963 6.01181C8.65932 5.72684 8.95179 5.45469 9.22997 5.1682C9.29525 5.10098 9.35778 5.04163 9.39499 4.95604C9.55523 4.58749 9.82163 4.26531 10.1376 4.01981C10.3111 3.88499 10.312 3.95519 10.2184 4.10737C10.1501 4.21839 10.0456 4.32556 10.0029 4.45088C9.9461 4.61739 10.0234 4.95538 10.1005 5.10253C10.1789 5.25212 10.6762 4.79367 10.7236 4.74556C10.7991 4.66877 10.9238 4.50109 10.8077 4.73882C10.6056 5.153 10.2875 5.46418 9.90183 5.7104C9.71142 5.83197 9.50725 5.94754 9.30238 6.04381C9.1462 6.11719 9.36623 6.02711 9.39667 6.01687C9.79359 5.88327 10.1898 5.76636 10.6023 5.6902C10.6619 5.67921 11.0611 5.6147 11.1512 5.606C11.1907 5.6022 11.3181 5.58897 11.2018 5.65315C10.5898 5.99067 9.8397 6.13832 9.17441 6.31996C8.45534 6.51628 7.72783 6.69148 7.01571 6.91267C6.62602 7.03371 7.8198 6.77125 8.22471 6.72072C8.81767 6.64671 9.41447 6.58964 10.0113 6.55738C10.275 6.54312 9.52537 6.78437 9.26365 6.82006C9.21797 6.82629 9.16148 6.80887 9.25018 6.79649C9.63809 6.74236 10.0305 6.71146 10.4205 6.67694C10.4242 6.67661 11.1281 6.62742 11.1277 6.62979C11.0991 6.77269 10.4768 6.94751 10.4003 6.96993C9.89164 7.11884 9.3644 7.15342 8.83764 7.16189C8.731 7.1636 8.62426 7.16626 8.5177 7.16189C8.39618 7.15689 8.75831 7.12351 8.87973 7.11642C10.1259 7.04369 11.3788 7.07323 12.6263 7.06927C13.6308 7.06608 14.6519 7.00004 15.6556 7.0558C16.5081 7.10316 15.5333 7.29804 15.3592 7.31512C14.1001 7.43863 12.8123 7.33169 11.5537 7.26628C10.386 7.20561 9.22064 7.14343 8.05128 7.13326C7.85082 7.13152 7.68134 7.13158 7.8088 7.13158C8.1552 7.13158 8.29489 7.13103 8.69451 7.13494C9.9303 7.14706 11.1616 7.19938 12.3923 7.3168C12.9255 7.36768 13.2728 7.40787 13.7781 7.48182C13.8737 7.49582 13.9692 7.51137 14.0643 7.52897C14.1073 7.53691 14.2121 7.53235 14.1889 7.56938C14.1052 7.7033 13.4676 7.70368 13.3638 7.71082C12.3224 7.78244 11.2681 7.75469 10.2251 7.76134C9.37535 7.76675 8.52557 7.76807 7.67578 7.76807C7.37938 7.76807 8.26855 7.77423 8.56485 7.78154C10.9903 7.84139 13.4181 7.90298 15.8425 7.99708C16.6038 8.02663 15.7976 7.99658 16.2095 8.01055C16.2499 8.01192 16.1287 8.01075 16.0883 8.01055C15.3136 8.00671 14.5393 7.98361 13.7646 7.98361C12.4837 7.98361 8.64115 8.01055 9.92204 8.01055C11.5197 8.01055 13.1108 8.04502 14.7059 8.14189C14.8438 8.15026 15.443 8.17991 14.8911 8.25134C13.6641 8.41013 12.3722 8.32923 11.1411 8.349C9.20529 8.3801 7.26959 8.44198 5.33354 8.45845C5.07477 8.46065 4.80153 8.53384 4.55728 8.44835C4.52416 8.43676 4.62666 8.43717 4.66168 8.43488C4.82916 8.4239 5.18716 8.41446 5.34195 8.4113C6.91891 8.37912 8.49981 8.35186 10.077 8.381C10.1826 8.38295 10.4934 8.36327 10.3935 8.39783C10.2863 8.43495 10.1667 8.40618 10.0534 8.4113C9.1187 8.45356 8.19692 8.59783 7.27333 8.73966C6.99362 8.78261 6.95314 8.78912 6.72103 8.82048C6.61066 8.8354 6.61948 8.8289 6.80859 8.8289C7.94971 8.8289 9.09081 8.83275 10.2319 8.84574C11.154 8.85624 12.0861 8.84266 13.0069 8.90636C13.0566 8.9098 13.1986 8.93898 13.15 8.95014C12.808 9.02863 12.405 9.00551 12.0605 9.02423C11.0615 9.07852 10.0658 9.16101 9.07001 9.2566C8.9186 9.27113 8.47856 9.31577 8.28533 9.33069C8.22825 9.3351 8.06321 9.35791 8.11358 9.33069C8.21276 9.27707 8.33234 9.27476 8.44361 9.2566C8.85335 9.18974 9.32676 9.13608 9.73008 9.10169C11.4153 8.95798 13.108 8.91648 14.7985 8.89625C15.3591 8.88955 15.9218 8.90408 16.4823 8.88952C16.663 8.88483 16.1237 8.84283 15.9435 8.8289C14.2455 8.69763 12.5667 9.05807 10.8734 9.12863C10.5863 9.14059 11.0854 9.12277 11.1563 9.13368C11.1894 9.13877 11.1238 9.19965 11.0923 9.21114C10.9164 9.27537 10.7547 9.28209 10.5602 9.29701C9.65874 9.36614 8.75105 9.37516 7.84753 9.39131C7.48603 9.39777 6.40798 9.43551 6.76313 9.36773C7.19759 9.28482 7.65865 9.30152 8.09674 9.31048C9.23271 9.33372 10.3674 9.3996 11.5015 9.4654C12.0625 9.49795 12.2795 9.51229 12.8284 9.53612C12.9816 9.54277 13.1348 9.54741 13.2881 9.55296C13.3829 9.55639 13.4778 9.55821 13.5726 9.56306C13.5986 9.56439 13.6404 9.54737 13.6501 9.57148C13.6589 9.59352 13.6031 9.57894 13.5794 9.5799C13.4919 9.58343 13.4043 9.58411 13.3167 9.58495C13.0501 9.5875 12.4014 9.58663 12.1936 9.58663C11.0602 9.58663 9.92641 9.58199 8.79385 9.6321C8.54667 9.64304 7.80553 9.67756 8.05296 9.67756C8.43463 9.67756 8.81637 9.68779 9.19798 9.69272C10.2762 9.70665 11.3544 9.70787 12.4327 9.70787C12.8598 9.70787 14.1389 9.66484 13.7141 9.70956C13.126 9.77146 12.4987 9.72832 11.9107 9.71629C11.4316 9.70649 11.0797 9.69481 10.6124 9.66241C10.4359 9.65017 9.92519 9.62965 10.0904 9.56643C10.2055 9.5224 10.6515 9.48852 10.6932 9.4856C11.0907 9.45787 11.633 9.44422 12.0235 9.43509C12.7777 9.41745 13.5324 9.41832 14.2866 9.39804C14.6269 9.38889 14.863 9.31707 15.1689 9.19598C15.8461 8.92792 16.2515 8.32943 16.846 7.93309C16.921 7.88309 17.0433 7.76387 17.1357 7.76807C17.2761 7.77446 16.8715 7.86451 16.7383 7.90952C16.263 8.07012 15.7879 8.23722 15.3238 8.42814C14.2467 8.87129 13.2172 9.46599 12.2862 10.1659C11.8233 10.5138 11.3554 10.8645 10.8785 11.193C10.7151 11.3055 9.37977 12.1742 9.29564 11.9592C9.18479 11.6759 9.13878 11.355 9.07337 11.06C9.01533 10.7982 9.00227 10.442 8.89152 10.1928C8.76922 9.91765 8.35404 10.2216 8.22808 10.3073C7.91515 10.5204 7.5991 10.7698 7.36258 11.0684C7.35518 11.0778 7.24558 11.2865 7.23966 11.1829C7.22724 10.9656 7.24783 10.7421 7.26997 10.5262C7.27625 10.465 7.27612 10.1529 7.34742 10.1036C7.41147 10.0592 7.71773 10.7925 7.7667 10.8815C7.81573 10.9707 8.00979 10.7544 8.02433 10.7401C8.25081 10.5163 8.40678 10.2522 8.49581 9.94698C8.51562 9.87907 8.5561 9.69062 8.50086 9.73481C8.21968 9.95976 8.0133 10.2965 7.96203 10.6542C7.91344 10.9932 7.97721 11.3437 8.02939 11.678C8.07123 11.946 8.05975 11.7812 8.0698 11.614C8.10329 11.0565 8.13099 10.4987 8.14052 9.94024C8.14091 9.91758 8.16818 8.93233 7.99402 9.43509C7.80035 9.99419 7.66151 10.6246 7.6 11.2132C7.57708 11.4326 7.83028 11.3723 7.98897 11.3682C8.46972 11.3557 8.95893 11.3208 9.43204 11.2318C9.63888 11.1928 9.81469 11.1448 10.0163 11.0853C10.1678 11.0405 10.4347 10.9898 10.5619 10.8731C10.6724 10.7716 10.2613 10.8007 10.114 10.8293C9.69758 10.9101 9.28767 11.0698 8.97571 11.3648C8.87172 11.4631 8.75327 11.7202 8.6221 11.7857C8.47209 11.8608 8.84493 11.535 8.95887 11.4119C9.25957 11.0872 9.57877 10.77 9.84458 10.4151C9.88657 10.359 9.98438 10.1878 9.92204 10.2198C9.80464 10.2799 9.50914 10.5787 9.45729 10.634C8.97181 11.1518 8.54578 11.7472 8.21461 12.3751C8.10751 12.5782 7.76304 13.2592 8.28533 12.9291C8.90262 12.539 9.44382 11.8758 9.44382 11.1139C9.44382 10.8656 9.18875 11.2969 9.18114 11.3075C8.97941 11.5904 8.7532 11.8979 8.67599 12.2438C8.56821 12.7266 9.64342 11.8826 9.65936 11.8699C10.2464 11.4041 10.8125 10.8236 11.2085 10.1827C11.2443 10.1248 11.3196 9.96065 11.2556 9.98402C11.0257 10.0681 10.7493 10.4793 10.6208 10.6407C10.1448 11.2388 9.72054 11.879 9.35795 12.5519C9.28942 12.6791 9.13963 12.8092 9.18114 12.9476C9.21281 13.0532 9.37254 12.8362 9.45729 12.7658C10.134 12.2032 10.7786 11.5987 11.424 11.0011C11.8586 10.5987 12.334 10.1977 12.7105 9.7365C12.8253 9.59587 12.4136 9.94578 12.271 10.0581C11.7851 10.4409 11.2867 10.8031 10.7707 11.1442C10.7477 11.1594 10.1723 11.438 10.5198 11.4305C11.0235 11.4195 11.5185 11.3155 11.9864 11.129C12.1619 11.0591 12.4298 10.9329 12.596 10.8327C12.6565 10.7962 12.8148 10.6839 12.7442 10.6811C12.5817 10.6748 12.4292 10.7617 12.2727 10.8057C11.9336 10.9011 11.7781 10.9433 11.4274 11.0145C11.1384 11.0733 10.2609 11.1434 10.5552 11.1627C10.8914 11.1848 11.2658 11.1795 11.5958 11.1139C12.046 11.0244 12.4354 10.8237 12.7981 10.5599C13.0574 10.3713 13.4502 10.3678 13.7545 10.3444" stroke="#85586F" stroke-linecap="round"/>
</svg>
