<svg width="29" height="29" viewBox="0 0 29 29" fill="none" xmlns="http://www.w3.org/2000/svg">
<path fill-rule="evenodd" clip-rule="evenodd" d="M8.08533 2C4.38933 2 2 4.52933 2 8.44667V20.22C2 24.1373 4.38933 26.6667 8.08533 26.6667H20.5813C24.2787 26.6667 26.6667 24.1373 26.6667 20.22V8.44667C26.6667 4.52933 24.2787 2 20.5813 2H8.08533ZM20.5813 28.6667H8.08533C3.24933 28.6667 0 25.272 0 20.22V8.44667C0 3.39467 3.24933 0 8.08533 0H20.5813C25.4173 0 28.6667 3.39467 28.6667 8.44667V20.22C28.6667 25.272 25.4173 28.6667 20.5813 28.6667V28.6667Z" fill="black"/>
<path fill-rule="evenodd" clip-rule="evenodd" d="M19.2219 15.3203H9.44458C8.89125 15.3203 8.44458 14.8723 8.44458 14.3203C8.44458 13.7683 8.89125 13.3203 9.44458 13.3203H19.2219C19.7739 13.3203 20.2219 13.7683 20.2219 14.3203C20.2219 14.8723 19.7739 15.3203 19.2219 15.3203" fill="black"/>
<path fill-rule="evenodd" clip-rule="evenodd" d="M14.3333 20.2059C13.7813 20.2059 13.3333 19.7579 13.3333 19.2059V9.43652C13.3333 8.88452 13.7813 8.43652 14.3333 8.43652C14.8853 8.43652 15.3333 8.88452 15.3333 9.43652V19.2059C15.3333 19.7579 14.8853 20.2059 14.3333 20.2059" fill="black"/>
</svg>
