<svg width="44" height="44" viewBox="0 0 44 44" fill="none" xmlns="http://www.w3.org/2000/svg">
<path fill-rule="evenodd" clip-rule="evenodd" d="M13.9448 6.41667C9.34207 6.41667 6.36757 9.59383 6.36757 14.5127V29.4873C6.36757 34.4062 9.34207 37.5833 13.9448 37.5833H29.7142C34.3188 37.5833 37.2951 34.4062 37.2951 29.4873V14.5127C37.2951 9.59383 34.3188 6.41667 29.716 6.41667H13.9448ZM29.7142 40.3333H13.9448C7.77932 40.3333 3.63867 35.9737 3.63867 29.4873V14.5127C3.63867 8.02633 7.77932 3.66667 13.9448 3.66667H29.716C35.8815 3.66667 40.024 8.02633 40.024 14.5127V29.4873C40.024 35.9737 35.8815 40.3333 29.7142 40.3333Z" fill="#5DC51D"/>
<path fill-rule="evenodd" clip-rule="evenodd" d="M19.6732 27.7255C19.3257 27.7255 18.9746 27.5917 18.709 27.3222L14.39 22.9717C13.857 22.4345 13.857 21.5655 14.39 21.0283C14.9231 20.4912 15.7854 20.4912 16.3184 21.0283L19.6732 24.4053L27.3432 16.6778C27.8762 16.1407 28.7386 16.1407 29.2716 16.6778C29.8047 17.215 29.8047 18.084 29.2716 18.6212L20.6374 27.3222C20.3718 27.5917 20.0225 27.7255 19.6732 27.7255Z" fill="#5DC51D"/>
</svg>
